<svg width="1280" height="240" viewBox="0 0 1280 240" xmlns="http://www.w3.org/2000/svg">
  <!-- Blueprint background -->
  <rect width="1280" height="240" fill="#14284b"/>
  <g stroke="#23416e" stroke-width="0.5">
    <line x1="16" y1="0" x2="16" y2="240"/><line x1="32" y1="0" x2="32" y2="240"/>
    <line x1="48" y1="0" x2="48" y2="240"/><line x1="64" y1="0" x2="64" y2="240"/>
    <line x1="80" y1="0" x2="80" y2="240"/><line x1="96" y1="0" x2="96" y2="240"/>
    <line x1="112" y1="0" x2="112" y2="240"/><line x1="128" y1="0" x2="128" y2="240"/>
    <line x1="144" y1="0" x2="144" y2="240"/><line x1="160" y1="0" x2="160" y2="240"/>
    <line x1="176" y1="0" x2="176" y2="240"/><line x1="192" y1="0" x2="192" y2="240"/>
    <line x1="208" y1="0" x2="208" y2="240"/><line x1="224" y1="0" x2="224" y2="240"/>
    <line x1="240" y1="0" x2="240" y2="240"/><line x1="256" y1="0" x2="256" y2="240"/>
    <line x1="272" y1="0" x2="272" y2="240"/><line x1="288" y1="0" x2="288" y2="240"/>
    <line x1="304" y1="0" x2="304" y2="240"/><line x1="320" y1="0" x2="320" y2="240"/>
    <line x1="336" y1="0" x2="336" y2="240"/><line x1="352" y1="0" x2="352" y2="240"/>
    <line x1="368" y1="0" x2="368" y2="240"/><line x1="384" y1="0" x2="384" y2="240"/>
    <line x1="400" y1="0" x2="400" y2="240"/><line x1="416" y1="0" x2="416" y2="240"/>
    <line x1="432" y1="0" x2="432" y2="240"/><line x1="448" y1="0" x2="448" y2="240"/>
    <line x1="464" y1="0" x2="464" y2="240"/><line x1="480" y1="0" x2="480" y2="240"/>
    <line x1="496" y1="0" x2="496" y2="240"/><line x1="512" y1="0" x2="512" y2="240"/>
    <line x1="528" y1="0" x2="528" y2="240"/><line x1="544" y1="0" x2="544" y2="240"/>
    <line x1="560" y1="0" x2="560" y2="240"/><line x1="576" y1="0" x2="576" y2="240"/>
    <line x1="592" y1="0" x2="592" y2="240"/><line x1="608" y1="0" x2="608" y2="240"/>
    <line x1="624" y1="0" x2="624" y2="240"/><line x1="640" y1="0" x2="640" y2="240"/>
    <line x1="656" y1="0" x2="656" y2="240"/><line x1="672" y1="0" x2="672" y2="240"/>
    <line x1="688" y1="0" x2="688" y2="240"/><line x1="704" y1="0" x2="704" y2="240"/>
    <line x1="720" y1="0" x2="720" y2="240"/><line x1="736" y1="0" x2="736" y2="240"/>
    <line x1="752" y1="0" x2="752" y2="240"/><line x1="768" y1="0" x2="768" y2="240"/>
    <line x1="784" y1="0" x2="784" y2="240"/><line x1="800" y1="0" x2="800" y2="240"/>
    <line x1="816" y1="0" x2="816" y2="240"/><line x1="832" y1="0" x2="832" y2="240"/>
    <line x1="848" y1="0" x2="848" y2="240"/><line x1="864" y1="0" x2="864" y2="240"/>
    <line x1="880" y1="0" x2="880" y2="240"/><line x1="896" y1="0" x2="896" y2="240"/>
    <line x1="912" y1="0" x2="912" y2="240"/><line x1="928" y1="0" x2="928" y2="240"/>
    <line x1="944" y1="0" x2="944" y2="240"/><line x1="960" y1="0" x2="960" y2="240"/>
    <line x1="976" y1="0" x2="976" y2="240"/><line x1="992" y1="0" x2="992" y2="240"/>
    <line x1="1008" y1="0" x2="1008" y2="240"/><line x1="1024" y1="0" x2="1024" y2="240"/>
    <line x1="1040" y1="0" x2="1040" y2="240"/><line x1="1056" y1="0" x2="1056" y2="240"/>
    <line x1="1072" y1="0" x2="1072" y2="240"/><line x1="1088" y1="0" x2="1088" y2="240"/>
    <line x1="1104" y1="0" x2="1104" y2="240"/><line x1="1120" y1="0" x2="1120" y2="240"/>
    <line x1="1136" y1="0" x2="1136" y2="240"/><line x1="1152" y1="0" x2="1152" y2="240"/>
    <line x1="1168" y1="0" x2="1168" y2="240"/><line x1="1184" y1="0" x2="1184" y2="240"/>
    <line x1="1200" y1="0" x2="1200" y2="240"/><line x1="1216" y1="0" x2="1216" y2="240"/>
    <line x1="1232" y1="0" x2="1232" y2="240"/><line x1="1248" y1="0" x2="1248" y2="240"/>
    <line x1="1264" y1="0" x2="1264" y2="240"/>
  </g>
  <g stroke="#2d5080" stroke-width="1">
    <line x1="64" y1="0" x2="64" y2="240"/><line x1="128" y1="0" x2="128" y2="240"/>
    <line x1="192" y1="0" x2="192" y2="240"/><line x1="256" y1="0" x2="256" y2="240"/>
    <line x1="320" y1="0" x2="320" y2="240"/><line x1="384" y1="0" x2="384" y2="240"/>
    <line x1="448" y1="0" x2="448" y2="240"/><line x1="512" y1="0" x2="512" y2="240"/>
    <line x1="576" y1="0" x2="576" y2="240"/><line x1="640" y1="0" x2="640" y2="240"/>
    <line x1="704" y1="0" x2="704" y2="240"/><line x1="768" y1="0" x2="768" y2="240"/>
    <line x1="832" y1="0" x2="832" y2="240"/><line x1="896" y1="0" x2="896" y2="240"/>
    <line x1="960" y1="0" x2="960" y2="240"/><line x1="1024" y1="0" x2="1024" y2="240"/>
    <line x1="1088" y1="0" x2="1088" y2="240"/><line x1="1152" y1="0" x2="1152" y2="240"/>
    <line x1="1216" y1="0" x2="1216" y2="240"/>
  </g>

  <!-- Border frame -->
  <rect x="20" y="20" width="1240" height="200" fill="none" stroke="#3c70b0" stroke-width="2"/>
  <line x1="20" y1="20" x2="50" y2="20" stroke="#5a9cf0" stroke-width="2"/>
  <line x1="20" y1="20" x2="20" y2="50" stroke="#5a9cf0" stroke-width="2"/>
  <line x1="1260" y1="20" x2="1230" y2="20" stroke="#5a9cf0" stroke-width="2"/>
  <line x1="1260" y1="20" x2="1260" y2="50" stroke="#5a9cf0" stroke-width="2"/>
  <line x1="20" y1="220" x2="50" y2="220" stroke="#5a9cf0" stroke-width="2"/>
  <line x1="20" y1="220" x2="20" y2="190" stroke="#5a9cf0" stroke-width="2"/>
  <line x1="1260" y1="220" x2="1230" y2="220" stroke="#5a9cf0" stroke-width="2"/>
  <line x1="1260" y1="220" x2="1260" y2="190" stroke="#5a9cf0" stroke-width="2"/>

  <!-- Top labels -->
  <text x="35" y="40" font-family="monospace" font-size="13" fill="#5a9cf0" font-weight="bold">PROJECT: KeepAI</text>
  <text x="35" y="55" font-family="monospace" font-size="10" fill="#8ab4f8">PRIVACY-FIRST AI BACKEND  |  LOCAL LLM INFERENCE</text>
  <text x="35" y="68" font-family="monospace" font-size="10" fill="#8ab4f8">STATUS: OPERATIONAL  |  UPTIME: 99.97%</text>

  <!-- Lego brick logo -->
  <g transform="translate(55, 95)">
    <rect x="4" y="4" width="100" height="65" rx="4" fill="#781818"/>
    <rect x="0" y="2" width="100" height="65" rx="4" fill="#c82828" stroke="#a02020" stroke-width="2"/>
    <line x1="6" y1="6" x2="94" y2="6" stroke="#ffb4b4" stroke-width="2"/>
    <circle cx="22" cy="-2" r="9" fill="#a02020"/>
    <circle cx="50" cy="-2" r="9" fill="#a02020"/>
    <circle cx="78" cy="-2" r="9" fill="#a02020"/>
    <circle cx="22" cy="-4" r="9" fill="#c82828" stroke="#a02020" stroke-width="1"/>
    <circle cx="50" cy="-4" r="9" fill="#c82828" stroke="#a02020" stroke-width="1"/>
    <circle cx="78" cy="-4" r="9" fill="#c82828" stroke="#a02020" stroke-width="1"/>
    <ellipse cx="19" cy="-6" rx="4" ry="2" fill="#ff9090"/>
    <ellipse cx="47" cy="-6" rx="4" ry="2" fill="#ff9090"/>
    <ellipse cx="75" cy="-6" rx="4" ry="2" fill="#ff9090"/>
    <text x="50" y="46" font-family="Helvetica Neue, Helvetica, Arial, sans-serif" font-size="34" font-weight="900" fill="#f0c814" text-anchor="middle">K</text>
  </g>

  <!-- Brand text -->
  <text x="190" y="130" font-family="Helvetica Neue, Helvetica, Arial, sans-serif" font-size="46" font-weight="700" fill="#d4e4fa">KeepAI</text>
  <text x="190" y="158" font-family="Helvetica Neue, Helvetica, Arial, sans-serif" font-size="19" fill="#8ab4f8">Your private AI backend. Run LLMs locally. Own your data.</text>

  <!-- Feature callouts -->
  <line x1="90" y1="180" x2="90" y2="200" stroke="#5a9cf0" stroke-width="1"/>
  <circle cx="90" cy="200" r="3" fill="#5a9cf0"/>
  <text x="102" y="203" font-family="monospace" font-size="10" fill="#8ab4f8">LOCAL LLMs</text>
  <line x1="270" y1="180" x2="270" y2="200" stroke="#5a9cf0" stroke-width="1"/>
  <circle cx="270" cy="200" r="3" fill="#5a9cf0"/>
  <text x="282" y="203" font-family="monospace" font-size="10" fill="#8ab4f8">JWT + RBAC</text>
  <line x1="450" y1="180" x2="450" y2="200" stroke="#5a9cf0" stroke-width="1"/>
  <circle cx="450" cy="200" r="3" fill="#5a9cf0"/>
  <text x="462" y="203" font-family="monospace" font-size="10" fill="#8ab4f8">POSTGRESQL</text>
  <line x1="630" y1="180" x2="630" y2="200" stroke="#5a9cf0" stroke-width="1"/>
  <circle cx="630" cy="200" r="3" fill="#5a9cf0"/>
  <text x="642" y="203" font-family="monospace" font-size="10" fill="#8ab4f8">DOCKER</text>

  <!-- Service logs terminal -->
  <rect x="870" y="95" width="375" height="110" rx="6" fill="#050a14" stroke="#3c70b0" stroke-width="1"/>
  <rect x="871" y="96" width="373" height="22" rx="4" fill="#0f1a30"/>
  <text x="882" y="111" font-family="monospace" font-size="10" fill="#64a0dc">SERVICE LOGS</text>
  <circle cx="1218" cy="107" r="4" fill="#50c850"/>
  <text x="1227" y="111" font-family="monospace" font-size="9" fill="#50c850">LIVE</text>

  <text x="878" y="128" font-family="monospace" font-size="9" fill="#607890">10:30:42</text>
  <text x="928" y="128" font-family="monospace" font-size="9" fill="#64c8ff">[INFO]</text>
  <text x="970" y="128" font-family="monospace" font-size="9" fill="#7896b4">server</text>
  <text x="1020" y="128" font-family="monospace" font-size="9" fill="#b4c4d8">Starting KeepAI server on port 8000</text>

  <text x="878" y="140" font-family="monospace" font-size="9" fill="#607890">10:30:43</text>
  <text x="928" y="140" font-family="monospace" font-size="9" fill="#64c8ff">[INFO]</text>
  <text x="970" y="140" font-family="monospace" font-size="9" fill="#7896b4">database</text>
  <text x="1020" y="140" font-family="monospace" font-size="9" fill="#b4c4d8">Connected to PostgreSQL (asyncpg)</text>

  <text x="878" y="152" font-family="monospace" font-size="9" fill="#607890">10:30:44</text>
  <text x="928" y="152" font-family="monospace" font-size="9" fill="#64c8ff">[INFO]</text>
  <text x="970" y="152" font-family="monospace" font-size="9" fill="#7896b4">ollama</text>
  <text x="1020" y="152" font-family="monospace" font-size="9" fill="#b4c4d8">Llama 3 model loaded (4.7B params)</text>

  <text x="878" y="164" font-family="monospace" font-size="9" fill="#607890">10:30:45</text>
  <text x="928" y="164" font-family="monospace" font-size="9" fill="#ffc850">[WARN]</text>
  <text x="970" y="164" font-family="monospace" font-size="9" fill="#7896b4">auth</text>
  <text x="1020" y="164" font-family="monospace" font-size="9" fill="#b4c4d8">JWT secret uses default key — update in prod</text>

  <text x="878" y="176" font-family="monospace" font-size="9" fill="#607890">10:30:46</text>
  <text x="928" y="176" font-family="monospace" font-size="9" fill="#64c8ff">[INFO]</text>
  <text x="970" y="176" font-family="monospace" font-size="9" fill="#7896b4">router</text>
  <text x="1020" y="176" font-family="monospace" font-size="9" fill="#b4c4d8">Routes: auth, prompts, admin registered</text>

  <text x="878" y="188" font-family="monospace" font-size="9" fill="#607890">10:30:50</text>
  <text x="928" y="188" font-family="monospace" font-size="9" fill="#50dc78">[ OK ]</text>
  <text x="970" y="188" font-family="monospace" font-size="9" fill="#7896b4">health</text>
  <text x="1020" y="188" font-family="monospace" font-size="9" fill="#b4c4d8">GET /health — 200 OK (1.2ms)</text>

  <!-- Bottom link -->
  <text x="640" y="233" font-family="monospace" font-size="12" fill="#5a9cf0" text-anchor="middle">github.com/yoosuf/KeepAI</text>
  <text x="640" y="238" font-family="monospace" font-size="9" fill="#8ab4f8" text-anchor="middle">Star  ·  Fork  ·  Contribute  ·  MIT License</text>
</svg>